<svg xmlns="http://www.w3.org/2000/svg" viewBox="0 0 58.68 18.93"><defs><style>.cls-1{fill:#fff}</style></defs><title>Asset 3</title><g id="Layer_2" data-name="Layer 2"><g id="Layer_1-2" data-name="Layer 1"><path class="cls-1" d="M57.26 9.46c0 4.57-12.5 8.28-27.92 8.28S1.42 14 1.42 9.46s12.5-8.28 27.92-8.28 27.92 3.71 27.92 8.28m1.42 0C58.68 4.24 45.54 0 29.34 0S0 4.24 0 9.46s13.13 9.46 29.34 9.46 29.34-4.24 29.34-9.46"/><path class="cls-1" d="M22.91 6.48c-2.25 0-3.24 1.13-3.24 3s1 3 3.24 3 3.24-1.13 3.24-3-1-3-3.24-3m-1.08 3c0-1.05.14-2.5 1.08-2.5S24 8.41 24 9.46 23.84 12 22.91 12s-1.08-1.38-1.08-2.5m-12.62.59h.69c1.58 0 2.54-.58 2.54-1.75a1.52 1.52 0 0 0-.95-1.47 5 5 0 0 0-1.81-.27H6.6V7c.54 0 .58.08.58.5v4c0 .43 0 .49-.58.51v.36h3.29V12c-.64 0-.69-.08-.69-.51zm.39-3c.38 0 .77.28.77 1.2 0 .5-.08 1.31-.8 1.31-.3 0-.36-.08-.36-.35v-2c0-.17 0-.21.39-.21m6.05 2.7h.3c.3 0 .45.18.53.48s.13.85.25 1.23c.22.66.6.87 1.54.87h1.16V12c-.53-.09-.58-.48-.71-1.08a1.52 1.52 0 0 0-1.3-1.43c.9-.12 1.54-.61 1.54-1.34 0-1.26-1.15-1.49-2.31-1.49H13V7c.54 0 .58.08.58.5v4c0 .43 0 .49-.58.51v.36h3.19V12c-.54 0-.58-.08-.58-.51zm0-2.34c0-.25.06-.32.4-.32s.87.31.87 1.07c0 .59-.22 1.11-1 1.11h-.31zm13.51 2.69h.69c1.58 0 2.54-.58 2.54-1.75a1.52 1.52 0 0 0-1-1.47 5 5 0 0 0-1.81-.27h-3.03V7c.54 0 .58.08.58.5v4c0 .43 0 .49-.58.51v.36h3.29V12c-.64 0-.69-.08-.69-.51zm.39-3c.38 0 .77.28.77 1.2 0 .5-.08 1.31-.8 1.31-.3 0-.36-.08-.36-.35v-2c0-.17 0-.21.39-.21M51.5 8.47C51.19 7.74 50.88 7 50 7c-1.36 0-1.48 1.72-1.48 2.47 0 1.05.23 2.53 1.51 2.53.83 0 1.2-.7 1.65-1.66h.41L52 12a4.68 4.68 0 0 1-2.16.42 3.8 3.8 0 0 1-2.59-.74 2.82 2.82 0 0 1-.87-2.2 3 3 0 0 1 .82-2.23 3.83 3.83 0 0 1 2.73-.81 4.51 4.51 0 0 1 2 .38v1.65zM42.08 10l.58-1.83h.06l.52 1.83zm3.7 1.56c-.16-.41-.42-1.2-.72-2.08l-1-2.85h-1.55l-1 2.87c-.31.89-.6 1.67-.77 2.1s-.21.36-.66.39h-.46c-.49 0-.54-.09-.54-.51v-4c0-.43 0-.49.58-.5V6.6h-3.22V7C37 7 37 7 37 7.47V9h-1.55V7.47c0-.43 0-.49.59-.5V6.6h-3.22V7c.54 0 .58.07.58.5v4c0 .43 0 .49-.58.51v.36H36V12c-.54 0-.59-.08-.59-.51V9.57H37v1.89c0 .43 0 .49-.59.51v.36h5.89V12h-.51c-.21 0-.26-.12-.19-.35l.33-1.07h1.43l.32 1c.08.25.06.38-.15.4h-.41v.37h3.35V12c-.49 0-.55-.08-.68-.43"/></g></g></svg>